# xmcd
#
# Track frame offsets:
#	150
#	19202
#	35432
#	56088
#	79944
#	99889
#	127504
#	143398
#	161357
#	185390
#	206674
#	224831
#	247513
#
# Disc length: 3683 seconds
#
# Revision: 2
# Processed by: cddbd v1.5.2PL0 Copyright (c) Steve Scherf et al.
# Submitted via: EZCDAudioConverter 7.1.5.1
#
DISCID=a10e610d
DTITLE=Mary Chapin Carpenter - Sometimes Just The Sky
DYEAR=2018
DGENRE=Country
TTITLE0=Heroes and Heroines
TTITLE1=What Does It Mean To Travel
TTITLE2=I Have a Need for Solitude
TTITLE3=One Small Heart
TTITLE4=The Moon and St. Christopher
TTITLE5=Superman
TTITLE6=Naked To The Eye
TTITLE7=Rhythm Of The Blues
TTITLE8=This Is Love
TTITLE9=Jericho
TTITLE10=The Calling
TTITLE11=This Shirt
TTITLE12=Sometimes Just The Sky
EXTD=
EXTT0=
EXTT1=
EXTT2=
EXTT3=
EXTT4=
EXTT5=
EXTT6=
EXTT7=
EXTT8=
EXTT9=
EXTT10=
EXTT11=
EXTT12=
PLAYORDER=
